<?xml version="1.0" standalone="no"?>
<!DOCTYPE svg PUBLIC "-//W3C//DTD SVG 20010904//EN"
 "http://www.w3.org/TR/2001/REC-SVG-20010904/DTD/svg10.dtd">
<svg version="1.0" xmlns="http://www.w3.org/2000/svg"
 width="981.000000pt" height="744.000000pt" viewBox="0 0 981.000000 744.000000"
 preserveAspectRatio="xMidYMid meet">
<metadata>
Created by potrace 1.16, written by Peter Selinger 2001-2019
</metadata>
<g transform="translate(0.000000,744.000000) scale(0.100000,-0.100000)"
fill="#000000" stroke="none">
<path d="M825 7420 c-194 -7 -254 -19 -355 -70 -163 -83 -295 -223 -413 -441
l-46 -86 -3 -809 c-2 -445 1 -826 5 -846 5 -26 19 -46 44 -65 32 -25 45 -28
109 -28 63 0 76 3 99 25 62 57 60 24 63 840 l3 745 52 99 c61 117 130 196 223
257 l67 43 806 12 805 12 29 33 c82 98 80 188 -5 252 -21 16 -52 21 -155 28
-149 9 -1065 9 -1328 -1z" fill="white"/>
<path d="M7513 7421 c-44 -11 -63 -28 -84 -76 -34 -74 -17 -177 35 -210 27
-18 423 -33 1137 -44 l526 -7 77 -54 c99 -68 144 -121 206 -242 l50 -96 0
-749 0 -749 43 -40 c95 -91 133 -96 229 -31 l63 43 3 105 c6 214 -18 1494 -29
1549 -15 75 -76 190 -153 286 -99 123 -201 204 -348 274 l-83 40 -820 5 c-451
2 -835 1 -852 -4z" fill="white"/>
<path d="M4845 7101 c-22 -12 -57 -35 -77 -52 l-38 -30 0 -638 0 -637 -112
-18 c-837 -133 -1474 -696 -1682 -1487 -30 -112 -66 -301 -66 -346 0 -9 -147
-13 -632 -15 -711 -3 -678 0 -718 -78 -37 -73 -19 -169 41 -213 41 -30 176
-36 775 -37 l541 0 6 -92 c10 -169 88 -411 217 -673 91 -183 166 -289 315
-444 339 -352 686 -539 1154 -621 64 -11 126 -23 139 -25 l22 -5 0 -639 0
-638 60 -42 c97 -68 130 -66 222 13 l48 41 0 633 c0 498 3 633 13 636 6 2 84
17 172 34 413 79 677 213 1001 509 325 296 525 638 618 1055 14 62 28 146 32
186 l7 72 536 0 c572 1 726 8 766 34 57 38 81 112 59 185 -18 62 -48 89 -113
101 -33 6 -290 10 -652 10 l-599 0 0 38 c0 111 -68 385 -141 567 -162 407
-561 840 -957 1039 -155 78 -360 146 -572 190 -69 14 -135 28 -147 31 l-23 5
-2 642 -3 641 -55 38 c-70 49 -103 56 -155 30z m-124 -1703 c1 -2 4 -122 8
-268 9 -298 13 -321 76 -360 69 -43 195 -26 225 30 17 31 29 159 38 382 5 114
10 210 13 212 9 9 226 -43 329 -79 138 -48 290 -121 393 -188 417 -272 713
-744 759 -1212 l3 -30 -280 -5 c-320 -6 -332 -8 -366 -83 -38 -84 -12 -179 61
-221 33 -20 54 -21 312 -25 l278 -3 -5 -22 c-2 -11 -12 -66 -21 -121 -41 -254
-165 -514 -349 -735 -98 -117 -294 -303 -374 -355 -99 -64 -271 -145 -413
-194 -122 -42 -315 -88 -325 -77 -4 3 -10 126 -14 271 -9 301 -13 318 -86 369
-56 39 -110 39 -165 0 -85 -60 -83 -50 -86 -366 l-4 -280 -46 7 c-99 14 -242
46 -318 71 -103 34 -306 131 -384 184 -154 104 -364 307 -483 465 -125 166
-259 509 -283 723 l-7 62 229 0 c325 0 377 11 416 85 34 61 23 152 -23 201
-34 36 -72 42 -341 49 -177 5 -252 11 -265 20 -16 12 -15 22 23 177 65 261
156 461 293 646 244 329 612 562 1026 651 79 17 153 26 156 19z" fill="purple"/>
<path d="M9550 2357 c-19 -12 -43 -38 -54 -57 -19 -33 -21 -58 -28 -360 -3
-179 -7 -522 -7 -764 l-1 -439 -51 -92 c-65 -117 -118 -178 -211 -242 l-73
-50 -480 -8 c-264 -3 -625 -10 -802 -14 l-322 -8 -28 -33 c-42 -50 -45 -57
-45 -119 0 -74 22 -117 70 -139 34 -16 109 -17 854 -15 l816 2 99 49 c117 59
201 121 277 202 69 75 99 119 168 245 l55 100 7 835 6 836 -32 30 c-56 53 -80
64 -134 64 -36 0 -61 -6 -84 -23z" fill="white"/>
<path d="M79 2351 c-78 -43 -83 -103 -75 -921 4 -360 11 -698 16 -750 8 -78
17 -110 49 -175 95 -198 305 -393 490 -455 108 -36 248 -41 986 -38 791 3 758
0 788 77 32 78 17 161 -37 210 -26 24 -27 24 -323 32 -164 4 -523 10 -798 14
l-500 7 -69 46 c-95 65 -162 141 -223 255 l-52 96 -4 743 c-2 551 -6 753 -16
780 -27 83 -149 124 -232 79z" fill="white"/>
</g>
</svg>
